<svg width="20" height="23" viewBox="0 0 20 23" fill="none" xmlns="http://www.w3.org/2000/svg">
<path fill-rule="evenodd" clip-rule="evenodd" d="M0 0.117188V17.7463H12.4372V16.4871H1.11111V1.37641H16.1111V2.71119H17.2222V0.117188H0ZM17.2222 6.41331C17.2222 6.74728 17.1052 7.06757 16.8968 7.30372C16.6884 7.53987 16.4058 7.67254 16.1111 7.67254C15.8165 7.67254 15.5338 7.53987 15.3255 7.30372C15.1171 7.06757 15 6.74728 15 6.41331C15 6.07935 15.1171 5.75906 15.3255 5.52291C15.5338 5.28676 15.8165 5.15409 16.1111 5.15409C16.4058 5.15409 16.6884 5.28676 16.8968 5.52291C17.1052 5.75906 17.2222 6.07935 17.2222 6.41331ZM18.3334 6.41331C18.3334 7.08125 18.0992 7.72183 17.6825 8.19413C17.2657 8.66643 16.7005 8.93176 16.1111 8.93176C15.5218 8.93176 14.9565 8.66643 14.5398 8.19413C14.123 7.72183 13.8889 7.08125 13.8889 6.41331C13.8889 5.74538 14.123 5.1048 14.5398 4.6325C14.9565 4.1602 15.5218 3.89486 16.1111 3.89486C16.7005 3.89486 17.2657 4.1602 17.6825 4.6325C18.0992 5.1048 18.3334 5.74538 18.3334 6.41331Z" fill="black"/>
<mask id="path-2-inside-1_219_3" fill="white">
<path fill-rule="evenodd" clip-rule="evenodd" d="M13.385 10.0841C13.6948 9.7489 14.1066 9.56177 14.535 9.56152H16.8028C17.6161 9.56152 18.3733 9.87507 18.9567 10.4996C19.5178 11.1003 19.81 11.8703 19.9294 12.6C20.1172 13.7472 19.9228 15.0007 19.4444 16.112V21.2094C19.4444 21.6044 19.3134 21.9849 19.0774 22.2755C18.8413 22.5661 18.5174 22.7455 18.1701 22.7781C17.8228 22.8107 17.4773 22.694 17.2023 22.4514C16.9273 22.2087 16.7428 21.8578 16.6855 21.4681L16.3889 19.4509L16.0922 21.4681C16.0349 21.8578 15.8505 22.2087 15.5755 22.4514C15.3005 22.694 14.955 22.8107 14.6076 22.7781C14.2603 22.7455 13.9365 22.5661 13.7004 22.2755C13.4643 21.9849 13.3333 21.6044 13.3333 21.2094V15.2866C13.0799 15.4524 12.7925 15.5397 12.5 15.5397H9.66553C9.2235 15.5397 8.79957 15.3407 8.48701 14.9865C8.17445 14.6322 7.99886 14.1518 7.99886 13.6509C7.99886 13.1499 8.17445 12.6695 8.48701 12.3152C8.79957 11.961 9.2235 11.762 9.66553 11.762H11.8322L13.385 10.0841ZM14.4444 17.4159V21.2094C14.4446 21.2882 14.4709 21.3641 14.5181 21.4221C14.5653 21.48 14.63 21.5157 14.6993 21.5222C14.7687 21.5287 14.8377 21.5055 14.8926 21.4571C14.9476 21.4087 14.9845 21.3387 14.9961 21.261L15.5755 17.3221C15.5971 17.1751 15.664 17.0415 15.7643 16.9452C15.8646 16.8488 15.9918 16.7958 16.1233 16.7958H16.6544C16.7859 16.7958 16.9131 16.8488 17.0135 16.9452C17.1138 17.0415 17.1806 17.1751 17.2022 17.3221L17.7817 21.261C17.7933 21.3387 17.8302 21.4087 17.8851 21.4571C17.9401 21.5055 18.0091 21.5287 18.0784 21.5222C18.1477 21.5157 18.2124 21.48 18.2596 21.4221C18.3068 21.3641 18.3331 21.2882 18.3333 21.2094V15.9622C18.3333 15.8614 18.3546 15.762 18.3955 15.6725C18.8244 14.7344 18.9805 13.7063 18.8372 12.8298C18.75 12.2972 18.5461 11.7922 18.1939 11.4151C17.8344 11.0304 17.3578 10.8207 16.8028 10.8207H14.5355C14.3928 10.8207 14.255 10.8831 14.1516 10.9945L12.4383 12.8468C12.3351 12.9587 12.1978 13.0211 12.055 13.0212H9.66553C9.51818 13.0212 9.37687 13.0876 9.27269 13.2057C9.1685 13.3237 9.10997 13.4839 9.10997 13.6509C9.10997 13.8178 9.1685 13.978 9.27269 14.0961C9.37687 14.2141 9.51818 14.2805 9.66553 14.2805H12.5C12.6428 14.2803 12.7801 14.2179 12.8833 14.1061L13.5055 13.4336C13.5843 13.3486 13.6833 13.2916 13.7903 13.2697C13.8973 13.2479 14.0077 13.2621 14.1076 13.3106C14.2076 13.3592 14.2928 13.4399 14.3527 13.5428C14.4125 13.6457 14.4444 13.7662 14.4444 13.8895V17.4166V17.4159Z"/>
</mask>
<path fill-rule="evenodd" clip-rule="evenodd" d="M13.385 10.0841C13.6948 9.7489 14.1066 9.56177 14.535 9.56152H16.8028C17.6161 9.56152 18.3733 9.87507 18.9567 10.4996C19.5178 11.1003 19.81 11.8703 19.9294 12.6C20.1172 13.7472 19.9228 15.0007 19.4444 16.112V21.2094C19.4444 21.6044 19.3134 21.9849 19.0774 22.2755C18.8413 22.5661 18.5174 22.7455 18.1701 22.7781C17.8228 22.8107 17.4773 22.694 17.2023 22.4514C16.9273 22.2087 16.7428 21.8578 16.6855 21.4681L16.3889 19.4509L16.0922 21.4681C16.0349 21.8578 15.8505 22.2087 15.5755 22.4514C15.3005 22.694 14.955 22.8107 14.6076 22.7781C14.2603 22.7455 13.9365 22.5661 13.7004 22.2755C13.4643 21.9849 13.3333 21.6044 13.3333 21.2094V15.2866C13.0799 15.4524 12.7925 15.5397 12.5 15.5397H9.66553C9.2235 15.5397 8.79957 15.3407 8.48701 14.9865C8.17445 14.6322 7.99886 14.1518 7.99886 13.6509C7.99886 13.1499 8.17445 12.6695 8.48701 12.3152C8.79957 11.961 9.2235 11.762 9.66553 11.762H11.8322L13.385 10.0841ZM14.4444 17.4159V21.2094C14.4446 21.2882 14.4709 21.3641 14.5181 21.4221C14.5653 21.48 14.63 21.5157 14.6993 21.5222C14.7687 21.5287 14.8377 21.5055 14.8926 21.4571C14.9476 21.4087 14.9845 21.3387 14.9961 21.261L15.5755 17.3221C15.5971 17.1751 15.664 17.0415 15.7643 16.9452C15.8646 16.8488 15.9918 16.7958 16.1233 16.7958H16.6544C16.7859 16.7958 16.9131 16.8488 17.0135 16.9452C17.1138 17.0415 17.1806 17.1751 17.2022 17.3221L17.7817 21.261C17.7933 21.3387 17.8302 21.4087 17.8851 21.4571C17.9401 21.5055 18.0091 21.5287 18.0784 21.5222C18.1477 21.5157 18.2124 21.48 18.2596 21.4221C18.3068 21.3641 18.3331 21.2882 18.3333 21.2094V15.9622C18.3333 15.8614 18.3546 15.762 18.3955 15.6725C18.8244 14.7344 18.9805 13.7063 18.8372 12.8298C18.75 12.2972 18.5461 11.7922 18.1939 11.4151C17.8344 11.0304 17.3578 10.8207 16.8028 10.8207H14.5355C14.3928 10.8207 14.255 10.8831 14.1516 10.9945L12.4383 12.8468C12.3351 12.9587 12.1978 13.0211 12.055 13.0212H9.66553C9.51818 13.0212 9.37687 13.0876 9.27269 13.2057C9.1685 13.3237 9.10997 13.4839 9.10997 13.6509C9.10997 13.8178 9.1685 13.978 9.27269 14.0961C9.37687 14.2141 9.51818 14.2805 9.66553 14.2805H12.5C12.6428 14.2803 12.7801 14.2179 12.8833 14.1061L13.5055 13.4336C13.5843 13.3486 13.6833 13.2916 13.7903 13.2697C13.8973 13.2479 14.0077 13.2621 14.1076 13.3106C14.2076 13.3592 14.2928 13.4399 14.3527 13.5428C14.4125 13.6457 14.4444 13.7662 14.4444 13.8895V17.4166V17.4159Z" fill="black"/>
<path d="M13.385 10.0841L40.541 35.2148L40.5483 35.2069L40.5556 35.1989L13.385 10.0841ZM14.535 9.56152V-27.4385H14.5245L14.514 -27.4385L14.535 9.56152ZM18.9567 10.4996L-8.08381 35.7546L-8.08105 35.7576L18.9567 10.4996ZM19.9294 12.6L-16.5846 18.5769L-16.5846 18.577L19.9294 12.6ZM19.4444 16.112L-14.5409 1.48335L-17.5556 8.48705V16.112H19.4444ZM19.4444 21.2094H-17.5556V21.2106L19.4444 21.2094ZM16.6855 21.4681L53.292 16.0859L53.2918 16.0847L16.6855 21.4681ZM16.3889 19.4509L52.9951 14.0674H-20.2174L16.3889 19.4509ZM16.0922 21.4681L-20.5141 16.0847L-20.5142 16.0859L16.0922 21.4681ZM13.3333 21.2094L50.3333 21.2106V21.2094H13.3333ZM13.3333 15.2866H50.3333V-53.1439L-6.92667 -15.6736L13.3333 15.2866ZM12.5 15.5397V52.5397H12.5018L12.5 15.5397ZM9.66553 15.5397V52.5397V15.5397ZM9.66553 11.762L9.66553 -25.238L9.66553 11.762ZM11.8322 11.762V48.762H28.0041L38.9882 36.8927L11.8322 11.762ZM14.4444 21.2094H-22.5556V21.2538L-22.5555 21.2983L14.4444 21.2094ZM14.9961 21.261L51.591 26.721L51.5966 26.6836L51.6021 26.6461L14.9961 21.261ZM15.5755 17.3221L52.1816 22.7072L52.1826 22.6998L52.1837 22.6924L15.5755 17.3221ZM16.1233 16.7958V-20.2042H16.1137L16.104 -20.2042L16.1233 16.7958ZM16.6544 16.7958L16.6737 -20.2042L16.6641 -20.2042H16.6544V16.7958ZM17.2022 17.3221L-19.406 22.6924L-19.4049 22.6998L-19.4038 22.7072L17.2022 17.3221ZM17.7817 21.261L-18.8244 26.6461L-18.8189 26.6836L-18.8133 26.721L17.7817 21.261ZM18.3333 21.2094L55.3332 21.2983L55.3333 21.2538V21.2094H18.3333ZM18.3333 15.9622H55.3333L55.3333 15.9571L18.3333 15.9622ZM18.3955 15.6725L-15.2546 0.288438L-15.2577 0.295293L18.3955 15.6725ZM18.8372 12.8298L55.3521 6.85804L55.3509 6.85069L18.8372 12.8298ZM18.1939 11.4151L45.2348 -13.8394L45.229 -13.8456L18.1939 11.4151ZM14.1516 10.9945L-12.9797 -14.1628L-12.9951 -14.1462L-13.0105 -14.1296L14.1516 10.9945ZM12.4383 12.8468L-14.7238 -12.2772L-14.7341 -12.2661L-14.7445 -12.2549L12.4383 12.8468ZM12.055 13.0212V50.0212H12.0728L12.0905 50.0212L12.055 13.0212ZM12.5 14.2805V51.2805H12.5178L12.5356 51.2805L12.5 14.2805ZM12.8833 14.1061L-14.2738 -11.0234L-14.2866 -11.0096L-14.2995 -10.9957L12.8833 14.1061ZM13.5055 13.4336L-13.6478 -11.6999L-13.6516 -11.6959L13.5055 13.4336ZM14.4444 13.8895L-22.5556 13.8833V13.8895H14.4444ZM40.5556 35.1989C34.3825 41.8774 25.174 46.5555 14.5559 46.5615L14.514 -27.4385C3.03924 -27.432 -6.99285 -22.3796 -13.7857 -15.0307L40.5556 35.1989ZM14.535 46.5615H16.8028V-27.4385H14.535V46.5615ZM16.8028 46.5615C7.5645 46.5615 -1.53473 42.7667 -8.08381 35.7546L45.9971 -14.7553C38.2814 -23.0166 27.6677 -27.4385 16.8028 -27.4385V46.5615ZM-8.08105 35.7576C-13.8829 29.5469 -15.893 22.8024 -16.5846 18.5769L56.4435 6.62321C55.513 0.938253 52.9185 -7.34626 45.9944 -14.7583L-8.08105 35.7576ZM-16.5846 18.577C-17.6942 11.7985 -16.4449 5.90676 -14.5409 1.48335L53.4298 30.7407C56.2904 24.0947 57.9286 15.6959 56.4435 6.62304L-16.5846 18.577ZM-17.5556 16.112V21.2094H56.4444V16.112H-17.5556ZM-17.5556 21.2106C-17.5558 13.6127 -15.072 5.63192 -9.64116 -1.05358L47.7959 45.6046C53.6989 38.3379 56.4447 29.596 56.4444 21.2081L-17.5556 21.2106ZM-9.64116 -1.05358C-4.1206 -7.84949 4.39322 -13.0921 14.7148 -14.0602L21.6254 59.6164C32.6417 58.5831 41.8032 52.9817 47.7959 45.6046L-9.64116 -1.05358ZM14.7148 -14.0602C25.1071 -15.035 34.7415 -11.4171 41.6828 -5.29214L-7.27826 50.1949C0.21311 56.8052 10.5384 60.6563 21.6254 59.6164L14.7148 -14.0602ZM41.6828 -5.29214C48.4692 0.696071 52.1783 8.51157 53.292 16.0859L-19.9209 26.8504C-18.6927 35.2039 -14.6146 43.7214 -7.27826 50.1949L41.6828 -5.29214ZM53.2918 16.0847L52.9951 14.0674L-20.2174 24.8343L-19.9207 26.8516L53.2918 16.0847ZM-20.2174 14.0674L-20.5141 16.0847L52.6985 26.8516L52.9951 24.8343L-20.2174 14.0674ZM-20.5142 16.0859C-19.4006 8.51157 -15.6915 0.696071 -8.90508 -5.29214L40.056 50.1949C47.3924 43.7214 51.4704 35.2039 52.6986 26.8504L-20.5142 16.0859ZM-8.90508 -5.29214C-1.96373 -11.4171 7.67065 -15.035 18.0629 -14.0602L11.1524 59.6164C22.2393 60.6563 32.5646 56.8052 40.056 50.1949L-8.90508 -5.29214ZM18.0629 -14.0602C28.3845 -13.0921 36.8983 -7.84953 42.4189 -1.05358L-15.0181 45.6046C-9.02541 52.9818 0.13611 58.5831 11.1524 59.6164L18.0629 -14.0602ZM42.4189 -1.05358C47.8498 5.63197 50.3336 13.6128 50.3333 21.2106L-23.6667 21.2081C-23.667 29.5959 -20.9212 38.3379 -15.0181 45.6046L42.4189 -1.05358ZM50.3333 21.2094V15.2866H-23.6667V21.2094H50.3333ZM-6.92667 -15.6736C-1.38076 -19.3028 5.33306 -21.4599 12.4981 -21.4603L12.5018 52.5397C20.252 52.5393 27.5407 50.2076 33.5933 46.2468L-6.92667 -15.6736ZM12.5 -21.4603H9.66553V52.5397H12.5V-21.4603ZM9.66553 -21.4603C20.6371 -21.4603 30.0653 -16.4811 36.2307 -9.49393L-19.2566 39.4669C-12.4662 47.1625 -2.1901 52.5397 9.66553 52.5397L9.66553 -21.4603ZM36.2307 -9.49393C42.2641 -2.6562 44.9989 5.7298 44.9989 13.6509H-29.0011C-29.0011 22.5738 -25.9152 31.9207 -19.2566 39.4669L36.2307 -9.49393ZM44.9989 13.6509C44.9989 21.5719 42.2641 29.9579 36.2307 36.7956L-19.2566 -12.1651C-25.9152 -4.61895 -29.0011 4.72792 -29.0011 13.6509H44.9989ZM36.2307 36.7956C30.0653 43.7829 20.637 48.762 9.66553 48.762L9.66553 -25.238C-2.19004 -25.238 -12.4661 -19.8608 -19.2566 -12.1651L36.2307 36.7956ZM9.66553 48.762H11.8322V-25.238H9.66553V48.762ZM38.9882 36.8927L40.541 35.2148L-13.771 -15.0466L-15.3238 -13.3687L38.9882 36.8927ZM-22.5556 17.4159V21.2094H51.4444V17.4159H-22.5556ZM-22.5555 21.2983C-22.5361 29.3563 -19.8836 37.7757 -14.1666 44.7927L43.2029 -1.94854C48.8254 4.95251 51.4253 13.2202 51.4443 21.1204L-22.5555 21.2983ZM-14.1666 44.7927C-8.3596 51.9201 0.533492 57.3582 11.2517 58.3613L18.1469 -15.3168C28.7265 -14.3267 37.4902 -8.96014 43.2029 -1.94854L-14.1666 44.7927ZM11.2517 58.3613C22.0403 59.3709 32.0735 55.6271 39.3417 49.2283L-9.55653 -6.31409C-2.39816 -12.6162 7.49706 -16.3135 18.1469 -15.3168L11.2517 58.3613ZM39.3417 49.2283C46.4553 42.9657 50.3934 34.7481 51.591 26.721L-21.5988 15.801C-20.4244 7.92942 -16.5602 -0.148203 -9.55653 -6.31409L39.3417 49.2283ZM51.6021 26.6461L52.1816 22.7072L-21.0305 11.937L-21.6099 15.8759L51.6021 26.6461ZM52.1837 22.6924C51.1004 30.0773 47.6378 37.6311 41.4003 43.6246L-9.87177 -9.73429C-16.3098 -3.54805 -19.9062 4.2729 -21.0327 11.9518L52.1837 22.6924ZM41.4003 43.6246C35.053 49.7237 26.1543 53.7905 16.1426 53.7958L16.104 -20.2042C5.82933 -20.1989 -3.32386 -16.0261 -9.87177 -9.73429L41.4003 43.6246ZM16.1233 53.7958H16.6544V-20.2042H16.1233V53.7958ZM16.6351 53.7958C6.62345 53.7905 -2.2753 49.7237 -8.6226 43.6246L42.6495 -9.73429C36.1016 -16.0261 26.9484 -20.1989 16.6737 -20.2042L16.6351 53.7958ZM-8.6226 43.6246C-14.86 37.6311 -18.3227 30.0773 -19.406 22.6924L53.8104 11.9518C52.6839 4.2729 49.0875 -3.54805 42.6495 -9.73429L-8.6226 43.6246ZM-19.4038 22.7072L-18.8244 26.6461L54.3877 15.8759L53.8082 11.937L-19.4038 22.7072ZM-18.8133 26.721C-17.6156 34.7481 -13.6776 42.9657 -6.56401 49.2283L42.3343 -6.31409C49.338 -0.148203 53.2021 7.92942 54.3766 15.801L-18.8133 26.721ZM-6.56401 49.2283C0.704268 55.6271 10.7374 59.3709 21.526 58.3613L14.6308 -15.3168C25.2807 -16.3135 35.1759 -12.6162 42.3343 -6.31409L-6.56401 49.2283ZM21.526 58.3613C32.2442 57.3582 41.1373 51.9201 46.9444 44.7927L-10.4251 -1.94854C-4.71249 -8.96014 4.05125 -14.3267 14.6308 -15.3168L21.526 58.3613ZM46.9444 44.7927C52.6613 37.7757 55.3138 29.3563 55.3332 21.2983L-18.6666 21.1204C-18.6476 13.2202 -16.0477 4.95251 -10.4251 -1.94854L46.9444 44.7927ZM55.3333 21.2094V15.9622H-18.6667V21.2094H55.3333ZM55.3333 15.9571C55.334 21.0318 54.2684 26.1921 52.0488 31.0498L-15.2577 0.295293C-17.5591 5.33203 -18.6674 10.691 -18.6667 15.9673L55.3333 15.9571ZM52.0456 31.0567C55.0871 24.4041 56.8403 15.9579 55.3521 6.85804L-17.6777 18.8016C-18.8792 11.4546 -17.4382 5.06478 -15.2546 0.288438L52.0456 31.0567ZM55.3509 6.85069C54.4474 1.33294 51.9305 -6.67006 45.2348 -13.8394L-8.84703 36.6696C-14.8383 30.2545 -16.9474 23.2614 -17.6765 18.809L55.3509 6.85069ZM45.229 -13.8456C37.7567 -21.8427 27.4354 -26.1793 16.8028 -26.1793V47.8207C7.28009 47.8207 -2.08785 43.9036 -8.84122 36.6758L45.229 -13.8456ZM16.8028 -26.1793H14.5355V47.8207H16.8028V-26.1793ZM14.5355 -26.1793C3.38265 -26.1793 -6.37413 -21.2867 -12.9797 -14.1628L41.2829 36.1519C34.8841 43.0528 25.4029 47.8207 14.5355 47.8207V-26.1793ZM-13.0105 -14.1296L-14.7238 -12.2772L39.6004 37.9709L41.3138 36.1186L-13.0105 -14.1296ZM-14.7445 -12.2549C-8.3679 -19.1601 1.11386 -23.9683 12.0194 -23.9787L12.0905 50.0212C23.2817 50.0105 33.038 45.0774 39.6211 37.9486L-14.7445 -12.2549ZM12.055 -23.9788H9.66553V50.0212H12.055V-23.9788ZM9.66553 -23.9788C-1.89526 -23.9788 -11.8888 -18.7344 -18.471 -11.2747L37.0163 37.6861C30.6425 44.9095 20.9316 50.0212 9.66553 50.0212V-23.9788ZM-18.471 -11.2747C-24.9212 -3.96464 -27.89 5.06197 -27.89 13.6509H46.11C46.11 21.9058 43.2582 30.6121 37.0163 37.6861L-18.471 -11.2747ZM-27.89 13.6509C-27.89 22.2398 -24.9212 31.2664 -18.471 38.5765L37.0163 -10.3843C43.2582 -3.31043 46.11 5.39586 46.11 13.6509H-27.89ZM-18.471 38.5765C-11.8889 46.0359 -1.89546 51.2805 9.66553 51.2805V-22.7195C20.9318 -22.7195 30.6426 -17.6076 37.0163 -10.3843L-18.471 38.5765ZM9.66553 51.2805H12.5V-22.7195H9.66553V51.2805ZM12.5356 51.2805C23.7267 51.2697 33.483 46.3366 40.0661 39.2078L-14.2995 -10.9957C-7.92289 -17.9009 1.55886 -22.709 12.4644 -22.7195L12.5356 51.2805ZM40.0404 39.2356L40.6626 38.5632L-13.6516 -11.6959L-14.2738 -11.0234L40.0404 39.2356ZM40.6589 38.5672C35.8192 43.7958 29.1477 47.8963 21.1971 49.5208L6.38354 -22.9813C-1.78119 -21.3131 -8.65069 -17.0986 -13.6478 -11.6999L40.6589 38.5672ZM21.1971 49.5208C13.1884 51.1571 5.02714 50.0322 -2.05227 46.5951L30.2675 -19.9739C22.9882 -23.5081 14.6062 -24.6614 6.38354 -22.9813L21.1971 49.5208ZM-2.05227 46.5951C-9.04548 43.1998 -14.2669 37.9273 -17.6284 32.1496L46.3337 -5.06401C42.8525 -11.0475 37.4607 -16.4815 30.2675 -19.9739L-2.05227 46.5951ZM-17.6284 32.1496C-20.9761 26.3955 -22.5566 20.0574 -22.5556 13.8833L51.4444 13.8957C51.4455 7.47508 49.8012 0.895855 46.3337 -5.06401L-17.6284 32.1496ZM-22.5556 13.8895V17.4166H51.4444V13.8895H-22.5556ZM51.4444 17.4166V17.4159H-22.5556V17.4166H51.4444Z" fill="black" mask="url(#path-2-inside-1_219_3)"/>
</svg>
