<svg width="22" height="25" viewBox="0 0 22 25" fill="none" xmlns="http://www.w3.org/2000/svg">
<path d="M17.0785 2.99955L18.1309 2.11651H16.7571H15.862C15.5611 2.11651 15.2869 2.01612 15.097 1.85783C14.9098 1.70175 14.8275 1.5117 14.8275 1.33755C14.8275 1.16341 14.9098 0.973356 15.097 0.817278C15.2869 0.658985 15.5611 0.558594 15.862 0.558594H20.4655C20.7663 0.558594 21.0405 0.658985 21.2304 0.817278C21.4177 0.973356 21.5 1.16341 21.5 1.33755V5.17443C21.5 5.34858 21.4177 5.53863 21.2304 5.69471C21.0405 5.853 20.7663 5.95339 20.4655 5.95339C20.1646 5.95339 19.8905 5.853 19.7006 5.69471C19.5133 5.53863 19.431 5.34858 19.431 5.17443V4.42837V3.36075L18.6109 4.04429L16.6032 5.71759L16.2309 6.02788L16.5294 6.40966C17.3088 7.40641 17.7721 8.54054 17.8879 9.70905C18.0037 10.8771 17.7698 12.0543 17.2009 13.137C16.6315 14.2207 15.742 15.1797 14.6031 15.9209C13.4639 16.6621 12.115 17.1594 10.6771 17.3624L10.2469 17.4231V17.8575V19.243V19.743H10.7469H13.3044C13.6053 19.743 13.8795 19.8434 14.0694 20.0017C14.2566 20.1578 14.339 20.3478 14.339 20.522C14.339 20.6961 14.2566 20.8862 14.0694 21.0422C13.8795 21.2005 13.6053 21.3009 13.3044 21.3009H10.7469H10.2469V21.8009V23.5062C10.2469 23.6803 10.1646 23.8704 9.97736 24.0265C9.78744 24.1848 9.51326 24.2852 9.21242 24.2852C8.91158 24.2852 8.6374 24.1848 8.44748 24.0265C8.26022 23.8704 8.17791 23.6803 8.17791 23.5062V21.8009V21.3009H7.67791H5.1204C4.81956 21.3009 4.54538 21.2005 4.35546 21.0422C4.16819 20.8862 4.08589 20.6961 4.08589 20.522C4.08589 20.3478 4.16819 20.1578 4.35546 20.0017C4.54538 19.8434 4.81956 19.743 5.1204 19.743H7.67791H8.17791V19.243V17.8575V17.4227L7.74742 17.3623C5.57066 17.0567 3.62966 16.0826 2.30007 14.6551C0.973319 13.2306 0.352257 11.4615 0.52975 9.69867C0.707434 7.93389 1.67656 6.26612 3.28087 5.03721C4.88697 3.80692 7.00352 3.11544 9.21218 3.11652L9.21334 3.11651C11.1614 3.11294 13.0464 3.65493 14.5661 4.64483L14.8765 4.84705L15.1603 4.60891L17.0785 2.99955ZM5.55904 14.9808C6.64664 15.5865 7.91777 15.9061 9.21242 15.9061C10.9465 15.9061 12.6238 15.3328 13.8728 14.2918C15.1244 13.2486 15.8505 11.8121 15.8505 10.2903C15.8505 9.15698 15.4467 8.05908 14.7061 7.13532C13.9668 6.21308 12.926 5.50603 11.7245 5.09123C10.5229 4.67638 9.20446 4.5687 7.93317 4.77947C6.66202 4.99021 5.48423 5.5118 4.55205 6.28874C3.61911 7.06632 2.97027 8.06875 2.70598 9.17616C2.44128 10.2853 2.57849 11.4335 3.09386 12.4705C3.60814 13.5054 4.47123 14.375 5.55904 14.9808Z" fill="black" stroke="black"/>
</svg>
