<svg width="16" height="22" viewBox="0 0 16 22" fill="none" xmlns="http://www.w3.org/2000/svg">
<path d="M8 0.115234C3.57714 0.115234 0 3.50123 0 7.68774C0 13.3671 8 21.751 8 21.751C8 21.751 16 13.3671 16 7.68774C16 3.50123 12.4229 0.115234 8 0.115234ZM8 10.3922C7.24224 10.3922 6.51551 10.1073 5.9797 9.60009C5.44388 9.09291 5.14286 8.40501 5.14286 7.68774C5.14286 6.97047 5.44388 6.28258 5.9797 5.7754C6.51551 5.26821 7.24224 4.98328 8 4.98328C8.75776 4.98328 9.48449 5.26821 10.0203 5.7754C10.5561 6.28258 10.8571 6.97047 10.8571 7.68774C10.8571 8.40501 10.5561 9.09291 10.0203 9.60009C9.48449 10.1073 8.75776 10.3922 8 10.3922Z" fill="black"/>
</svg>
