<svg width="17" height="21" viewBox="0 0 17 21" fill="none" xmlns="http://www.w3.org/2000/svg">
<path d="M8.02623 0C8.82188 0 9.58494 0.325639 10.1476 0.90528C10.7102 1.48492 11.0262 2.27108 11.0262 3.09082C11.0262 3.91056 10.7102 4.69672 10.1476 5.27636C9.58494 5.856 8.82188 6.18164 8.02623 6.18164C7.23058 6.18164 6.46752 5.856 5.90491 5.27636C5.3423 4.69672 5.02623 3.91056 5.02623 3.09082C5.02623 2.27108 5.3423 1.48492 5.90491 0.90528C6.46752 0.325639 7.23058 0 8.02623 0ZM16.0262 16.4844L14.0262 10.8797C13.6762 9.85972 13.3662 8.97368 12.0262 8.24219C10.6462 7.521 9.64623 7.21191 8.02623 7.21191C6.39623 7.21191 5.40623 7.521 4.02623 8.24219C2.68623 8.97368 2.37623 9.85972 2.02623 10.8797L0.0262298 16.4844C-0.29377 17.8752 2.38623 18.9982 4.13623 19.7709V17.5146C4.13623 16.5359 4.99623 15.8456 6.71623 15.4232C6.87623 15.382 7.02623 15.3614 7.14623 15.3408C6.60623 14.4959 6.38623 13.7438 6.36623 13.682L8.13623 13.0639C8.14623 13.0845 8.65623 14.702 9.86623 15.5159C10.0762 15.588 10.2862 15.6705 10.4862 15.7632C11.2562 16.1135 11.7162 16.5668 11.8662 17.1128C10.5262 17.6589 9.24623 17.9371 8.02623 17.9371L7.02623 17.834V20.5437L8.02623 20.6055C9.39623 20.6055 10.6962 20.317 11.9162 19.7709C13.6662 18.9982 16.2762 17.6486 16.0262 16.4844ZM11.5262 15.4541C11.1284 15.4541 10.7469 15.2913 10.4656 15.0015C10.1843 14.7116 10.0262 14.3186 10.0262 13.9087C10.0262 13.4988 10.1843 13.1057 10.4656 12.8159C10.7469 12.5261 11.1284 12.3633 11.5262 12.3633C11.9241 12.3633 12.3056 12.5261 12.5869 12.8159C12.8682 13.1057 13.0262 13.4988 13.0262 13.9087C13.0262 14.3186 12.8682 14.7116 12.5869 15.0015C12.3056 15.2913 11.9241 15.4541 11.5262 15.4541Z" fill="black"/>
</svg>
