<svg width="132" height="92" viewBox="0 0 132 92" fill="none" xmlns="http://www.w3.org/2000/svg">
<rect x="61.3521" y="4.89355" width="70.6479" height="13.7021" rx="6.85106" fill="black"/>
<rect x="67.8591" y="42.0852" width="64.1408" height="13.7021" rx="6.85106" fill="black"/>
<rect x="76.2253" y="80.2554" width="55.7747" height="11.7447" rx="5.87234" fill="black"/>
<path d="M52.8613 55.2C58.2535 55.2 63.4248 57.6232 67.2376 61.9365C71.0505 66.2499 73.1925 72.1 73.1925 78.2V82.8C73.1925 85.24 72.3357 87.5801 70.8106 89.3054C69.2854 91.0307 67.2169 92 65.06 92H8.1325C5.97563 92 3.9071 91.0307 2.38195 89.3054C0.856815 87.5801 0 85.24 0 82.8V78.2C0 72.1 2.14204 66.2499 5.95489 61.9365C9.76774 57.6232 14.9391 55.2 20.3313 55.2H52.8613ZM36.5963 0C41.9885 0 47.1598 2.42321 50.9726 6.73654C54.7855 11.0499 56.9275 16.9 56.9275 23C56.9275 29.1 54.7855 34.9501 50.9726 39.2635C47.1598 43.5768 41.9885 46 36.5963 46C31.2041 46 26.0327 43.5768 22.2199 39.2635C18.407 34.9501 16.265 29.1 16.265 23C16.265 16.9 18.407 11.0499 22.2199 6.73654C26.0327 2.42321 31.2041 0 36.5963 0Z" fill="black"/>
</svg>
