<svg width="19" height="23" viewBox="0 0 19 23" fill="none" xmlns="http://www.w3.org/2000/svg">
<path d="M17.2239 11.5493C17.1138 11.5493 16.9485 11.5947 16.7283 11.6854L15.737 8.62372C15.9297 8.30621 16.0261 7.85263 16.0261 7.26298C16.0261 6.62797 15.9022 6.10635 15.6543 5.69813C15.4065 5.28991 15.0899 5.0858 14.7043 5.0858C14.2362 5.0858 13.892 5.38063 13.6717 5.97028L8.92174 3.45291V3.11273C8.92174 2.52308 8.79094 2.0128 8.52935 1.5819C8.26775 1.151 7.95797 0.935547 7.6 0.935547C7.24203 0.935547 6.93225 1.151 6.67065 1.5819C6.40906 2.0128 6.27826 2.52308 6.27826 3.11273V3.65702L3.30435 5.76617C2.94638 4.81365 2.43696 4.33739 1.77609 4.33739C1.28043 4.33739 0.860507 4.62088 0.516304 5.18785C0.172101 5.75483 0 6.44654 0 7.26298C0 8.07942 0.172101 8.77113 0.516304 9.33811C0.860507 9.90508 1.28043 10.1886 1.77609 10.1886C2.02391 10.1886 2.31304 10.0752 2.64348 9.84838L5.57609 15.7676C5.38333 16.4933 5.28696 17.1737 5.28696 17.8087C5.28696 19.1241 5.5692 20.2467 6.1337 21.1765C6.69819 22.1064 7.37971 22.5713 8.17826 22.5713C8.86667 22.5713 9.47246 22.1971 9.99565 21.4487C10.5188 20.7003 10.8493 19.7818 10.987 18.6932L15.6543 15.9037C16.0399 16.9015 16.563 17.4005 17.2239 17.4005C17.7196 17.4005 18.1395 17.117 18.4837 16.55C18.8279 15.983 19 15.2913 19 14.4749C19 13.6585 18.8279 12.9667 18.4837 12.3998C18.1395 11.8328 17.7196 11.5493 17.2239 11.5493ZM3.51087 7.73924C3.51087 7.69388 3.51775 7.62584 3.53152 7.53513C3.54529 7.44441 3.55217 7.37638 3.55217 7.33102L6.6087 4.60954C6.85652 5.10848 7.18696 5.35795 7.6 5.35795C7.9029 5.35795 8.2058 5.15384 8.5087 4.74562L9.29348 5.15384C8.38478 5.24455 7.60688 5.84555 6.95978 6.95682C6.31268 8.06808 5.98913 9.3948 5.98913 10.937C5.98913 11.2998 6.0442 11.8441 6.15435 12.5699L3.51087 7.73924ZM6.48478 13.9986V13.9306H6.52609L6.48478 13.9986ZM10.45 14.9512C9.87174 13.7265 9.11449 13.1142 8.17826 13.1142C7.95797 13.1142 7.68261 13.1595 7.35217 13.2502C7.07681 12.5699 6.93913 11.7988 6.93913 10.937C6.93913 9.75767 7.19384 8.75979 7.70326 7.94335C8.21268 7.12691 8.82536 6.71869 9.5413 6.71869C10.2572 6.71869 10.8699 7.13825 11.3793 7.97737C11.8888 8.81649 12.1435 9.80303 12.1435 10.937C12.1435 11.8441 11.9851 12.6606 11.6685 13.3863C11.3518 14.112 10.9457 14.6336 10.45 14.9512ZM15.5717 13.5224L11.2761 16.0397C12.4601 14.9058 13.0522 13.2049 13.0522 10.937C13.0522 9.12266 12.6391 7.64852 11.813 6.51458L13.3826 7.39906C13.4101 7.98871 13.5478 8.47631 13.7957 8.86185C14.0435 9.24739 14.3464 9.44016 14.7043 9.44016C14.842 9.44016 14.9522 9.41748 15.0348 9.37213L16.0261 12.2977C15.8058 12.6606 15.6543 13.0688 15.5717 13.5224Z" fill="black"/>
</svg>
