<svg width="85" height="92" viewBox="0 0 85 92" fill="none" xmlns="http://www.w3.org/2000/svg">
<path d="M55.25 55.2C60.8859 55.2 66.2909 57.6232 70.276 61.9365C74.2612 66.2499 76.5 72.1 76.5 78.2V82.8C76.5 85.24 75.6045 87.58 74.0104 89.3054C72.4163 91.0307 70.2543 92 68 92H8.5C6.24566 92 4.08365 91.0307 2.48959 89.3054C0.895533 87.58 0 85.24 0 82.8V78.2C0 72.1 2.23883 66.2499 6.22398 61.9365C10.2091 57.6232 15.6141 55.2 21.25 55.2H55.25ZM72.25 27.6C73.3772 27.6 74.4582 28.0846 75.2552 28.9473C76.0522 29.81 76.5 30.98 76.5 32.2V36.8H80.75C81.8772 36.8 82.9582 37.2846 83.7552 38.1473C84.5522 39.01 85 40.18 85 41.4C85 42.62 84.5522 43.79 83.7552 44.6527C82.9582 45.5154 81.8772 46 80.75 46H76.5V50.6C76.5 51.82 76.0522 52.99 75.2552 53.8527C74.4582 54.7154 73.3772 55.2 72.25 55.2C71.1228 55.2 70.0418 54.7154 69.2448 53.8527C68.4478 52.99 68 51.82 68 50.6V46H63.75C62.6228 46 61.5418 45.5154 60.7448 44.6527C59.9478 43.79 59.5 42.62 59.5 41.4C59.5 40.18 59.9478 39.01 60.7448 38.1473C61.5418 37.2846 62.6228 36.8 63.75 36.8H68V32.2C68 30.98 68.4478 29.81 69.2448 28.9473C70.0418 28.0846 71.1228 27.6 72.25 27.6ZM38.25 0C43.8859 0 49.2909 2.42321 53.276 6.73654C57.2612 11.0499 59.5 16.9 59.5 23C59.5 29.1 57.2612 34.9501 53.276 39.2635C49.2909 43.5768 43.8859 46 38.25 46C32.6141 46 27.2091 43.5768 23.224 39.2635C19.2388 34.9501 17 29.1 17 23C17 16.9 19.2388 11.0499 23.224 6.73654C27.2091 2.42321 32.6141 0 38.25 0Z" fill="black"/>
</svg>
