<svg width="18" height="24" viewBox="0 0 18 24" fill="none" xmlns="http://www.w3.org/2000/svg">
<path d="M9 7.11914C9.53043 7.11914 10.0391 6.90205 10.4142 6.51562C10.7893 6.12919 11 5.60508 11 5.05859C11 4.66709 10.9 4.30649 10.71 3.99741L9 0.9375L7.29 3.99741C7.1 4.30649 7 4.66709 7 5.05859C7 6.19189 7.9 7.11914 9 7.11914ZM15 10.21H10V8.14941H8V10.21H3C1.34 10.21 0 11.5905 0 13.3008V22.5732C0 23.1399 0.45 23.6035 1 23.6035H17C17.55 23.6035 18 23.1399 18 22.5732V13.3008C18 11.5905 16.66 10.21 15 10.21ZM16 21.543H2V18.4521C2.9 18.4521 3.76 18.0709 4.4 17.4219L5.5 16.3092L6.56 17.4219C7.87 18.7612 10.15 18.7509 11.45 17.4219L12.53 16.3092L13.6 17.4219C14.24 18.0709 15.1 18.4521 16 18.4521V21.543ZM16 16.9067C15.5 16.9067 15 16.7007 14.65 16.3195L12.5 14.125L10.38 16.3195C9.64 17.0819 8.35 17.0819 7.61 16.3195L5.5 14.125L3.34 16.3195C3 16.6904 2.5 16.9067 2 16.9067V13.3008C2 12.7341 2.45 12.2705 3 12.2705H15C15.55 12.2705 16 12.7341 16 13.3008V16.9067Z" fill="black"/>
</svg>
