<svg width="86" height="93" viewBox="0 0 86 93" fill="none" xmlns="http://www.w3.org/2000/svg">
<path d="M56.374 55.3606C62.0341 55.3606 67.4624 57.7765 71.4647 62.0768C75.467 66.377 77.7154 72.2095 77.7154 78.291V82.8771C77.7154 85.3097 76.816 87.6427 75.2151 89.3628C73.6142 91.0829 71.4429 92.0492 69.1789 92.0492H9.423C7.15896 92.0492 4.98766 91.0829 3.38674 89.3628C1.78583 87.6427 0.886444 85.3097 0.886444 82.8771V78.291C0.886444 72.2095 3.1349 66.377 7.13719 62.0768C11.1395 57.7765 16.5677 55.3606 22.2278 55.3606H56.374ZM39.3009 0.327637C44.961 0.327637 50.3893 2.74351 54.3916 7.0438C58.3939 11.3441 60.6423 17.1765 60.6423 23.258C60.6423 29.3396 58.3939 35.172 54.3916 39.4723C50.3893 43.7726 44.961 46.1884 39.3009 46.1884C33.6408 46.1884 28.2126 43.7726 24.2103 39.4723C20.208 35.172 17.9595 29.3396 17.9595 23.258C17.9595 17.1765 20.208 11.3441 24.2103 7.0438C28.2126 2.74351 33.6408 0.327637 39.3009 0.327637Z" fill="black"/>
<rect x="63.0137" y="36.5054" width="22.7641" height="9.68172" rx="4.84086" fill="black"/>
</svg>
