<svg width="108" height="92" viewBox="0 0 108 92" fill="none" xmlns="http://www.w3.org/2000/svg">
<path d="M37.8015 45.9989C49.7326 45.9989 59.4023 35.7031 59.4023 22.9995C59.4023 10.2958 49.7326 0 37.8015 0C25.8704 0 16.2006 10.2958 16.2006 22.9995C16.2006 35.7031 25.8704 45.9989 37.8015 45.9989ZM52.9221 51.7488H50.1038C45.5545 51.7488 42.1891 51.7488 37.8015 51.7488C33.4138 51.7488 30.455 51.7488 25.4991 51.7488H22.6809C10.1591 51.7488 0 62.5657 0 75.8982V83.373C0 88.1346 3.62827 91.9978 8.10032 91.9978H54.4915C54.0865 90.776 53.9177 89.4822 54.0527 88.1706L55.2003 77.2278L55.4028 75.2334L56.736 73.8139L69.7808 59.9244C65.6463 54.9471 59.6555 51.7488 52.9221 51.7488ZM60.5667 77.8567L59.4192 88.8174C59.2336 90.6502 60.6849 92.1955 62.3893 91.9798L72.6666 90.758L95.9381 65.9797L83.8383 53.0964L60.5667 77.8567ZM106.823 48.3168L100.427 41.5068C98.8576 39.8358 96.2925 39.8358 94.7231 41.5068L88.3441 48.2989L87.6522 49.0356L99.7689 61.9188L106.823 54.4081C108.392 52.7191 108.392 50.0058 106.823 48.3168Z" fill="black"/>
</svg>
