<svg width="21" height="21" viewBox="0 0 21 21" fill="none" xmlns="http://www.w3.org/2000/svg">
<path d="M4.74194 0C5.46059 0 6.1498 0.217093 6.65797 0.60352C7.16613 0.989948 7.45161 1.51406 7.45161 2.06055C7.45161 2.60704 7.16613 3.13115 6.65797 3.51757C6.1498 3.904 5.46059 4.12109 4.74194 4.12109C4.02328 4.12109 3.33407 3.904 2.8259 3.51757C2.31774 3.13115 2.03226 2.60704 2.03226 2.06055C2.03226 1.51406 2.31774 0.989948 2.8259 0.60352C3.33407 0.217093 4.02328 0 4.74194 0ZM2.70968 5.15137H6.77419C7.49284 5.15137 8.18206 5.36846 8.69022 5.75489C9.19839 6.14131 9.48387 6.66542 9.48387 7.21191V12.8784H7.45161V20.6055H2.03226V12.8784H0V7.21191C0 6.66542 0.285483 6.14131 0.793646 5.75489C1.30181 5.36846 1.99103 5.15137 2.70968 5.15137ZM14.2258 10.3027C14.2258 9.75624 14.5113 9.23214 15.0195 8.84571C15.5276 8.45928 16.2168 8.24219 16.9355 8.24219C17.6541 8.24219 18.3434 8.45928 18.8515 8.84571C19.3597 9.23214 19.6452 9.75624 19.6452 10.3027C19.6452 10.8492 19.3597 11.3733 18.8515 11.7598C18.3434 12.1462 17.6541 12.3633 16.9355 12.3633C16.2168 12.3633 15.5276 12.1462 15.0195 11.7598C14.5113 11.3733 14.2258 10.8492 14.2258 10.3027ZM12.871 13.3936H21V17.5146H18.9677V20.6055H14.9032V17.5146H12.871V13.3936Z" fill="black"/>
</svg>
