<svg width="132" height="92" viewBox="0 0 132 92" fill="none" xmlns="http://www.w3.org/2000/svg">
<rect x="18.8571" y="2.46436" width="113.143" height="17.25" rx="8.625" fill="black"/>
<path d="M9.72789 11.8286C10.7202 11.8286 11.6719 12.3478 12.3735 13.2721C13.0752 14.1964 13.4694 15.45 13.4694 16.7571V17.7429C13.4694 18.2657 13.3117 18.7672 13.031 19.1369C12.7504 19.5066 12.3697 19.7143 11.9728 19.7143H1.4966C1.09968 19.7143 0.71901 19.5066 0.438344 19.1369C0.157677 18.7672 0 18.2657 0 17.7429V16.7571C0 15.45 0.394192 14.1964 1.09586 13.2721C1.79753 12.3478 2.74919 11.8286 3.7415 11.8286H9.72789ZM6.73469 0C7.727 0 8.67866 0.519259 9.38033 1.44355C10.082 2.36783 10.4762 3.62143 10.4762 4.92857C10.4762 6.23571 10.082 7.48931 9.38033 8.4136C8.67866 9.33789 7.727 9.85714 6.73469 9.85714C5.74239 9.85714 4.79072 9.33789 4.08906 8.4136C3.38739 7.48931 2.9932 6.23571 2.9932 4.92857C2.9932 3.62143 3.38739 2.36783 4.08906 1.44355C4.79072 0.519259 5.74239 0 6.73469 0Z" fill="black"/>
<rect x="18.8571" y="38.6072" width="113.143" height="17.25" rx="8.625" fill="black"/>
<path d="M9.72789 47.9714C10.7202 47.9714 11.6719 48.4907 12.3735 49.4149C13.0752 50.3392 13.4694 51.5928 13.4694 52.9V53.8857C13.4694 54.4085 13.3117 54.91 13.031 55.2797C12.7504 55.6494 12.3697 55.8571 11.9728 55.8571H1.4966C1.09968 55.8571 0.71901 55.6494 0.438344 55.2797C0.157677 54.91 0 54.4085 0 53.8857V52.9C0 51.5928 0.394192 50.3392 1.09586 49.4149C1.79753 48.4907 2.74919 47.9714 3.7415 47.9714H9.72789ZM6.73469 36.1428C7.727 36.1428 8.67866 36.6621 9.38033 37.5864C10.082 38.5107 10.4762 39.7643 10.4762 41.0714C10.4762 42.3785 10.082 43.6321 9.38033 44.5564C8.67866 45.4807 7.727 46 6.73469 46C5.74239 46 4.79072 45.4807 4.08906 44.5564C3.38739 43.6321 2.9932 42.3785 2.9932 41.0714C2.9932 39.7643 3.38739 38.5107 4.08906 37.5864C4.79072 36.6621 5.74239 36.1428 6.73469 36.1428Z" fill="black"/>
<rect x="18.8571" y="74.75" width="113.143" height="17.25" rx="8.625" fill="black"/>
<path d="M9.72789 84.1142C10.7202 84.1142 11.6719 84.6335 12.3735 85.5578C13.0752 86.482 13.4694 87.7357 13.4694 89.0428V90.0285C13.4694 90.5514 13.3117 91.0528 13.031 91.4225C12.7504 91.7922 12.3697 91.9999 11.9728 91.9999H1.4966C1.09968 91.9999 0.71901 91.7922 0.438344 91.4225C0.157677 91.0528 0 90.5514 0 90.0285V89.0428C0 87.7357 0.394192 86.482 1.09586 85.5578C1.79753 84.6335 2.74919 84.1142 3.7415 84.1142H9.72789ZM6.73469 72.2856C7.727 72.2856 8.67866 72.8049 9.38033 73.7292C10.082 74.6535 10.4762 75.9071 10.4762 77.2142C10.4762 78.5214 10.082 79.775 9.38033 80.6992C8.67866 81.6235 7.727 82.1428 6.73469 82.1428C5.74239 82.1428 4.79072 81.6235 4.08906 80.6992C3.38739 79.775 2.9932 78.5214 2.9932 77.2142C2.9932 75.9071 3.38739 74.6535 4.08906 73.7292C4.79072 72.8049 5.74239 72.2856 6.73469 72.2856Z" fill="black"/>
</svg>
