<svg width="21" height="21" viewBox="0 0 21 21" fill="none" xmlns="http://www.w3.org/2000/svg">
<path d="M8.07692 0C4.92692 0 2.42308 2.36581 2.42308 5.34216C2.41756 6.21741 2.64103 7.08038 3.07363 7.85435C3.50623 8.62831 4.13454 9.28926 4.90269 9.77844C2.02731 10.9484 0 13.6546 0 16.7896H1.61538C1.61538 13.4317 4.52308 10.6843 8.07692 10.6843C11.2269 10.6843 13.7308 8.3185 13.7308 5.34216C13.7308 2.36581 11.2269 0 8.07692 0ZM8.07692 1.52633C10.3385 1.52633 12.1154 3.2053 12.1154 5.34216C12.1154 7.47902 10.3385 9.15799 8.07692 9.15799C5.81538 9.15799 4.03846 7.47902 4.03846 5.34216C4.03846 3.2053 5.81538 1.52633 8.07692 1.52633ZM12.1154 10.6843C11.2269 10.6843 10.5 11.3712 10.5 12.2106V15.5686L15.3462 20.1476C15.6692 20.4528 16.0731 20.6055 16.4769 20.6055C16.8808 20.6055 17.2846 20.4528 17.6077 20.1476L20.5154 17.4002C20.8385 17.0949 21 16.7133 21 16.3317C21 15.9502 20.8385 15.5686 20.5154 15.2633L15.6692 10.6843H12.1154ZM12.1154 12.2106H15.0231L19.3846 16.3317L16.4769 19.0791L12.1154 14.958V12.2106ZM13.7308 12.9738C13.5166 12.9738 13.3111 13.0542 13.1596 13.1973C13.0082 13.3405 12.9231 13.5346 12.9231 13.737C12.9231 13.9394 13.0082 14.1335 13.1596 14.2766C13.3111 14.4197 13.5166 14.5001 13.7308 14.5001C13.945 14.5001 14.1504 14.4197 14.3019 14.2766C14.4534 14.1335 14.5385 13.9394 14.5385 13.737C14.5385 13.5346 14.4534 13.3405 14.3019 13.1973C14.1504 13.0542 13.945 12.9738 13.7308 12.9738Z" fill="black"/>
</svg>
